# xmcd
#
# Track frame offsets:
#	150
#	22662
#	40297
#	61617
#	78032
#	98800
#	120187
#	136390
#	155027
#	170315
#	189370
#	212467
#	226865
#	239257
#	250450
#	270930
#	283755
#	299830
#
# Disc length: 4256 seconds
#
# Revision: 1
# Processed by: cddbd v1.5.1PL0 Copyright (c) Steve Scherf et al.
# Submitted via: CDex 1.50Beta5
#
DISCID=e8109e12
DTITLE=小林明子 - 青春の歌姫たち3〜GOOD TIMES DIVA Vol.3〜
DYEAR=2002
DGENRE=
TTITLE0=小林明子/恋におちて-Fall in love-
TTITLE1=ペドロ&カプリシャス/五番街のマリーへ
TTITLE2=辛島美登里/サイレント・イヴ
TTITLE3=桑江知子/私のハートはストップモーション
TTITLE4=欧陽菲菲/ラヴ・イズ・オーヴァー
TTITLE5=おおたか静流/花(すべての人の心に花を)
TTITLE6=豊島たづみ/とまどいトワイライト
TTITLE7=内藤やす子/六本木ララバイ
TTITLE8=八神純子/みずいろの雨
TTITLE9=門あさ美/LONELY LONELY
TTITLE10=山根麻衣/フーリン・マイセルフ
TTITLE11=伊集加代子/夜明けのスキャット
TTITLE12=森山良子/美しい星
TTITLE13=藤真利子/うわきなパラダイス急行
TTITLE14=柴田まゆみ/白いページの中に
TTITLE15=伊東きよ子/花と小父さん
TTITLE16=和田アキ子/あの鐘を鳴らすのはあなた
TTITLE17=岩崎宏美/聖母たちのララバイ
EXTD=
EXTT0=
EXTT1=
EXTT2=
EXTT3=
EXTT4=
EXTT5=
EXTT6=
EXTT7=
EXTT8=
EXTT9=
EXTT10=
EXTT11=
EXTT12=
EXTT13=
EXTT14=
EXTT15=
EXTT16=
EXTT17=
PLAYORDER=
